<svg width="94" height="65" viewBox="0 0 94 65" fill="none" xmlns="http://www.w3.org/2000/svg">
<ellipse cx="58.1667" cy="41.2537" rx="1.16667" ry="1.25373" fill="#D9D9D9"/>
<ellipse cx="64.5" cy="62.7463" rx="1.16667" ry="1.25373" fill="#D9D9D9"/>
<ellipse cx="64.5" cy="57.3731" rx="1.16667" ry="1.25373" fill="#D9D9D9"/>
<ellipse cx="64.5" cy="51.6418" rx="1.16667" ry="1.25373" fill="#D9D9D9"/>
<ellipse cx="64.5" cy="46.6269" rx="1.16667" ry="1.25373" fill="#D9D9D9"/>
<ellipse cx="58.1667" cy="62.7463" rx="1.16667" ry="1.25373" fill="#D9D9D9"/>
<ellipse cx="58.1667" cy="57.3731" rx="1.16667" ry="1.25373" fill="#D9D9D9"/>
<ellipse cx="58.1667" cy="51.9999" rx="1.16667" ry="1.25373" fill="#D9D9D9"/>
<ellipse cx="58.1667" cy="46.6269" rx="1.16667" ry="1.25373" fill="#D9D9D9"/>
<ellipse cx="58.1667" cy="62.7463" rx="1.16667" ry="1.25373" fill="#D9D9D9"/>
<ellipse cx="58.1667" cy="57.3731" rx="1.16667" ry="1.25373" fill="#D9D9D9"/>
<ellipse cx="58.1667" cy="51.9999" rx="1.16667" ry="1.25373" fill="#D9D9D9"/>
<ellipse cx="58.1667" cy="46.6269" rx="1.16667" ry="1.25373" fill="#D9D9D9"/>
<ellipse cx="82.1667" cy="62.7463" rx="1.16667" ry="1.25373" fill="#D9D9D9"/>
<ellipse cx="82.1667" cy="57.3731" rx="1.16667" ry="1.25373" fill="#D9D9D9"/>
<ellipse cx="82.1667" cy="51.9999" rx="1.16667" ry="1.25373" fill="#D9D9D9"/>
<ellipse cx="82.1667" cy="46.6269" rx="1.16667" ry="1.25373" fill="#D9D9D9"/>
<ellipse cx="82.1667" cy="62.7463" rx="1.16667" ry="1.25373" fill="#D9D9D9"/>
<ellipse cx="82.1667" cy="57.3731" rx="1.16667" ry="1.25373" fill="#D9D9D9"/>
<ellipse cx="82.1667" cy="51.9999" rx="1.16667" ry="1.25373" fill="#D9D9D9"/>
<ellipse cx="82.1667" cy="46.6269" rx="1.16667" ry="1.25373" fill="#D9D9D9"/>
<ellipse cx="75.8334" cy="62.7463" rx="1.16667" ry="1.25373" fill="#D9D9D9"/>
<ellipse cx="75.8334" cy="57.3731" rx="1.16667" ry="1.25373" fill="#D9D9D9"/>
<ellipse cx="75.8334" cy="51.9999" rx="1.16667" ry="1.25373" fill="#D9D9D9"/>
<ellipse cx="75.8334" cy="46.6269" rx="1.16667" ry="1.25373" fill="#D9D9D9"/>
<ellipse cx="75.8334" cy="62.7463" rx="1.16667" ry="1.25373" fill="#D9D9D9"/>
<ellipse cx="75.8334" cy="57.3731" rx="1.16667" ry="1.25373" fill="#D9D9D9"/>
<ellipse cx="75.8334" cy="51.9999" rx="1.16667" ry="1.25373" fill="#D9D9D9"/>
<ellipse cx="75.8334" cy="46.6269" rx="1.16667" ry="1.25373" fill="#D9D9D9"/>
<ellipse cx="69.8333" cy="62.7463" rx="1.16667" ry="1.25373" fill="#D9D9D9"/>
<ellipse cx="69.8333" cy="57.3731" rx="1.16667" ry="1.25373" fill="#D9D9D9"/>
<ellipse cx="69.8333" cy="51.9999" rx="1.16667" ry="1.25373" fill="#D9D9D9"/>
<ellipse cx="69.8333" cy="46.6269" rx="1.16667" ry="1.25373" fill="#D9D9D9"/>
<ellipse cx="69.8333" cy="62.7463" rx="1.16667" ry="1.25373" fill="#D9D9D9"/>
<ellipse cx="69.8333" cy="57.3731" rx="1.16667" ry="1.25373" fill="#D9D9D9"/>
<ellipse cx="69.8333" cy="51.9999" rx="1.16667" ry="1.25373" fill="#D9D9D9"/>
<ellipse cx="69.8333" cy="46.6269" rx="1.16667" ry="1.25373" fill="#D9D9D9"/>
<ellipse cx="82.1667" cy="41.2537" rx="1.16667" ry="1.25373" fill="#D9D9D9"/>
<ellipse cx="75.8334" cy="41.2537" rx="1.16667" ry="1.25373" fill="#D9D9D9"/>
<ellipse cx="69.8333" cy="41.2537" rx="1.16667" ry="1.25373" fill="#D9D9D9"/>
<ellipse cx="64.5" cy="41.2537" rx="1.16667" ry="1.25373" fill="#D9D9D9"/>
<ellipse cx="1.16667" cy="13.2537" rx="1.16667" ry="1.25373" fill="#D9D9D9"/>
<ellipse cx="7.50001" cy="34.7463" rx="1.16667" ry="1.25373" fill="#D9D9D9"/>
<ellipse cx="7.50001" cy="29.3731" rx="1.16667" ry="1.25373" fill="#D9D9D9"/>
<ellipse cx="7.50001" cy="23.6418" rx="1.16667" ry="1.25373" fill="#D9D9D9"/>
<ellipse cx="7.50001" cy="18.6269" rx="1.16667" ry="1.25373" fill="#D9D9D9"/>
<ellipse cx="1.16667" cy="34.7463" rx="1.16667" ry="1.25373" fill="#D9D9D9"/>
<ellipse cx="1.16667" cy="29.3731" rx="1.16667" ry="1.25373" fill="#D9D9D9"/>
<ellipse cx="1.16667" cy="23.9999" rx="1.16667" ry="1.25373" fill="#D9D9D9"/>
<ellipse cx="1.16667" cy="18.6269" rx="1.16667" ry="1.25373" fill="#D9D9D9"/>
<ellipse cx="1.16667" cy="34.7463" rx="1.16667" ry="1.25373" fill="#D9D9D9"/>
<ellipse cx="1.16667" cy="29.3731" rx="1.16667" ry="1.25373" fill="#D9D9D9"/>
<ellipse cx="1.16667" cy="23.9999" rx="1.16667" ry="1.25373" fill="#D9D9D9"/>
<ellipse cx="1.16667" cy="18.6269" rx="1.16667" ry="1.25373" fill="#D9D9D9"/>
<ellipse cx="25.1667" cy="34.7463" rx="1.16667" ry="1.25373" fill="#D9D9D9"/>
<ellipse cx="25.1667" cy="29.3731" rx="1.16667" ry="1.25373" fill="#D9D9D9"/>
<ellipse cx="25.1667" cy="23.9999" rx="1.16667" ry="1.25373" fill="#D9D9D9"/>
<ellipse cx="25.1667" cy="18.6269" rx="1.16667" ry="1.25373" fill="#D9D9D9"/>
<ellipse cx="25.1667" cy="34.7463" rx="1.16667" ry="1.25373" fill="#D9D9D9"/>
<ellipse cx="25.1667" cy="29.3731" rx="1.16667" ry="1.25373" fill="#D9D9D9"/>
<ellipse cx="25.1667" cy="23.9999" rx="1.16667" ry="1.25373" fill="#D9D9D9"/>
<ellipse cx="25.1667" cy="18.6269" rx="1.16667" ry="1.25373" fill="#D9D9D9"/>
<ellipse cx="18.8334" cy="34.7463" rx="1.16667" ry="1.25373" fill="#D9D9D9"/>
<ellipse cx="18.8334" cy="29.3731" rx="1.16667" ry="1.25373" fill="#D9D9D9"/>
<ellipse cx="18.8334" cy="23.9999" rx="1.16667" ry="1.25373" fill="#D9D9D9"/>
<ellipse cx="18.8334" cy="18.6269" rx="1.16667" ry="1.25373" fill="#D9D9D9"/>
<ellipse cx="18.8334" cy="34.7463" rx="1.16667" ry="1.25373" fill="#D9D9D9"/>
<ellipse cx="18.8334" cy="29.3731" rx="1.16667" ry="1.25373" fill="#D9D9D9"/>
<ellipse cx="18.8334" cy="23.9999" rx="1.16667" ry="1.25373" fill="#D9D9D9"/>
<ellipse cx="18.8334" cy="18.6269" rx="1.16667" ry="1.25373" fill="#D9D9D9"/>
<ellipse cx="12.8333" cy="34.7463" rx="1.16667" ry="1.25373" fill="#D9D9D9"/>
<ellipse cx="12.8333" cy="29.3731" rx="1.16667" ry="1.25373" fill="#D9D9D9"/>
<ellipse cx="12.8333" cy="23.9999" rx="1.16667" ry="1.25373" fill="#D9D9D9"/>
<ellipse cx="12.8333" cy="18.6269" rx="1.16667" ry="1.25373" fill="#D9D9D9"/>
<ellipse cx="12.8333" cy="34.7463" rx="1.16667" ry="1.25373" fill="#D9D9D9"/>
<ellipse cx="12.8333" cy="29.3731" rx="1.16667" ry="1.25373" fill="#D9D9D9"/>
<ellipse cx="12.8333" cy="23.9999" rx="1.16667" ry="1.25373" fill="#D9D9D9"/>
<ellipse cx="12.8333" cy="18.6269" rx="1.16667" ry="1.25373" fill="#D9D9D9"/>
<ellipse cx="25.1667" cy="13.2537" rx="1.16667" ry="1.25373" fill="#D9D9D9"/>
<ellipse cx="18.8334" cy="13.2537" rx="1.16667" ry="1.25373" fill="#D9D9D9"/>
<ellipse cx="12.8333" cy="13.2537" rx="1.16667" ry="1.25373" fill="#D9D9D9"/>
<ellipse cx="7.50001" cy="13.2537" rx="1.16667" ry="1.25373" fill="#D9D9D9"/>
<path d="M54.5817 32.1703H49.1449H48.5857H43.1489C43.1489 32.1703 33.8641 35.6295 33.8641 45.8921V51.8881H48.5857H49.1449H63.8664V45.8921C63.8664 35.6295 54.5817 32.1703 54.5817 32.1703Z" fill="#473E3E"/>
<path d="M63.008 19.2268C60.793 8.77178 55.2507 0.974708 48.5855 0C41.9205 0.974708 36.3782 8.77159 34.1632 19.2268C31.9482 29.6818 42.7576 33.2261 42.7576 33.2261L48.5855 36.4158L54.4136 33.2261C54.4136 33.2261 65.2229 29.6818 63.008 19.2268Z" fill="#534747"/>
<path d="M52.3971 9.74082C52.3971 9.74082 51.1266 8.05737 48.5855 8.05737C46.0444 8.05737 44.7739 9.74082 44.7739 9.74082C39.8733 14.3482 34.9727 26.1378 40.9623 29.5047C46.9518 32.8716 48.5855 36.4156 48.5855 36.4156C48.5855 36.4156 50.219 32.8716 56.2087 29.5047C62.1983 26.1378 57.2977 14.3482 52.3971 9.74082Z" fill="#332D2D"/>
<mask id="mask0_7_381" style="mask-type:luminance" maskUnits="userSpaceOnUse" x="38" y="8" width="21" height="29">
<path d="M52.3971 9.74082C52.3971 9.74082 51.1266 8.05737 48.5855 8.05737C46.0444 8.05737 44.7739 9.74082 44.7739 9.74082C39.8733 14.3482 34.9727 26.1378 40.9623 29.5047C46.9518 32.8716 48.5855 36.4156 48.5855 36.4156C48.5855 36.4156 50.219 32.8716 56.2087 29.5047C62.1983 26.1378 57.2977 14.3482 52.3971 9.74082Z" fill="white"/>
</mask>
<g mask="url(#mask0_7_381)">
<path d="M50.3738 25.1757H46.7972C46.0747 25.1757 45.4891 25.8332 45.4891 26.6443V32.9396C45.4891 34.8594 46.8754 36.4159 48.5857 36.4159C50.296 36.4159 51.6823 34.8596 51.6823 32.9396V26.6443C51.6821 25.8332 51.0964 25.1757 50.3738 25.1757Z" fill="#FBC39D"/>
</g>
<mask id="mask1_7_381" style="mask-type:luminance" maskUnits="userSpaceOnUse" x="38" y="8" width="21" height="29">
<path d="M52.3971 9.74082C52.3971 9.74082 51.1266 8.05737 48.5855 8.05737C46.0444 8.05737 44.7739 9.74082 44.7739 9.74082C39.8733 14.3482 34.9727 26.1378 40.9623 29.5047C46.9518 32.8716 48.5855 36.4156 48.5855 36.4156C48.5855 36.4156 50.219 32.8716 56.2087 29.5047C62.1983 26.1378 57.2977 14.3482 52.3971 9.74082Z" fill="white"/>
</mask>
<g mask="url(#mask1_7_381)">
<path d="M45.4085 28.4272C45.4085 28.4272 45.6592 30.2508 48.5051 30.2508C51.3511 30.2508 51.6019 28.4272 51.6019 28.4272H45.4085Z" fill="#F9AC7F"/>
</g>
<mask id="mask2_7_381" style="mask-type:luminance" maskUnits="userSpaceOnUse" x="38" y="8" width="21" height="29">
<path d="M52.3971 9.74082C52.3971 9.74082 51.1266 8.05737 48.5855 8.05737C46.0444 8.05737 44.7739 9.74082 44.7739 9.74082C39.8733 14.3482 34.9727 26.1378 40.9623 29.5047C46.9518 32.8716 48.5855 36.4156 48.5855 36.4156C48.5855 36.4156 50.219 32.8716 56.2087 29.5047C62.1983 26.1378 57.2977 14.3482 52.3971 9.74082Z" fill="white"/>
</mask>
<g mask="url(#mask2_7_381)">
<path d="M57.4829 16.3511C56.4028 16.3511 55.5272 17.2613 55.5272 18.3844C55.5272 19.5075 56.4029 20.4179 57.4829 20.4179C58.5631 20.4179 59.4386 19.5075 59.4386 18.3844C59.4386 17.2615 58.5631 16.3511 57.4829 16.3511Z" fill="#F9AC7F"/>
</g>
<mask id="mask3_7_381" style="mask-type:luminance" maskUnits="userSpaceOnUse" x="38" y="8" width="21" height="29">
<path d="M52.3971 9.74082C52.3971 9.74082 51.1266 8.05737 48.5855 8.05737C46.0444 8.05737 44.7739 9.74082 44.7739 9.74082C39.8733 14.3482 34.9727 26.1378 40.9623 29.5047C46.9518 32.8716 48.5855 36.4156 48.5855 36.4156C48.5855 36.4156 50.219 32.8716 56.2087 29.5047C62.1983 26.1378 57.2977 14.3482 52.3971 9.74082Z" fill="white"/>
</mask>
<g mask="url(#mask3_7_381)">
<path d="M39.6951 16.3511C38.615 16.3511 37.7392 17.2613 37.7392 18.3844C37.7392 19.5075 38.615 20.4179 39.6951 20.4179C40.7753 20.4179 41.6508 19.5075 41.6508 18.3844C41.6508 17.2615 40.7753 16.3511 39.6951 16.3511Z" fill="#F9AC7F"/>
</g>
<mask id="mask4_7_381" style="mask-type:luminance" maskUnits="userSpaceOnUse" x="38" y="8" width="21" height="29">
<path d="M52.3971 9.74082C52.3971 9.74082 51.1266 8.05737 48.5855 8.05737C46.0444 8.05737 44.7739 9.74082 44.7739 9.74082C39.8733 14.3482 34.9727 26.1378 40.9623 29.5047C46.9518 32.8716 48.5855 36.4156 48.5855 36.4156C48.5855 36.4156 50.219 32.8716 56.2087 29.5047C62.1983 26.1378 57.2977 14.3482 52.3971 9.74082Z" fill="white"/>
</mask>
<g mask="url(#mask4_7_381)">
<path d="M47.8738 29.0117L47.8585 29.0266C48.0986 29.0462 48.3405 29.0588 48.5857 29.0588C49.3227 29.0588 50.0379 28.9672 50.7213 28.7969C50.7243 28.791 50.7268 28.7848 50.7297 28.7789C54.5127 27.8318 57.3126 24.4375 57.3126 20.3946V10.262C57.3126 5.48565 53.4055 6.24672 48.5857 6.24672C43.7661 6.24672 39.8588 5.48585 39.8588 10.262V20.3946C39.8588 24.933 43.3874 28.6523 47.8738 29.0117Z" fill="#FBC39D"/>
</g>
<mask id="mask5_7_381" style="mask-type:luminance" maskUnits="userSpaceOnUse" x="38" y="8" width="21" height="29">
<path d="M52.3971 9.74082C52.3971 9.74082 51.1266 8.05737 48.5855 8.05737C46.0444 8.05737 44.7739 9.74082 44.7739 9.74082C39.8733 14.3482 34.9727 26.1378 40.9623 29.5047C46.9518 32.8716 48.5855 36.4156 48.5855 36.4156C48.5855 36.4156 50.219 32.8716 56.2087 29.5047C62.1983 26.1378 57.2977 14.3482 52.3971 9.74082Z" fill="white"/>
</mask>
<g mask="url(#mask5_7_381)">
<path d="M48.758 22.5435H48.2525C47.6551 22.5435 47.1927 22.0198 47.2668 21.4271L47.5197 19.0049C47.5818 18.5079 48.0044 18.1349 48.5053 18.1349C49.0063 18.1349 49.4289 18.5079 49.491 19.0049L49.7439 21.4271C49.8178 22.0198 49.3554 22.5435 48.758 22.5435Z" fill="#F9AC7F"/>
</g>
<mask id="mask6_7_381" style="mask-type:luminance" maskUnits="userSpaceOnUse" x="38" y="8" width="21" height="29">
<path d="M52.3971 9.74082C52.3971 9.74082 51.1266 8.05737 48.5855 8.05737C46.0444 8.05737 44.7739 9.74082 44.7739 9.74082C39.8733 14.3482 34.9727 26.1378 40.9623 29.5047C46.9518 32.8716 48.5855 36.4156 48.5855 36.4156C48.5855 36.4156 50.219 32.8716 56.2087 29.5047C62.1983 26.1378 57.2977 14.3482 52.3971 9.74082Z" fill="white"/>
</mask>
<g mask="url(#mask6_7_381)">
<path d="M42.4066 8.25554C42.4066 8.25554 41.9501 11.3463 48.9743 13.1375C48.9743 13.1375 47.5949 11.7665 47.5222 11.1299C47.5222 11.1299 48.5381 12.8439 53.1186 13.4887C53.1186 13.4887 51.0325 12.2114 51.1613 11.4843C51.1613 11.4843 54.3126 14.2998 57.3126 13.4623L54.1538 9.48054C51.9588 6.71381 48.1805 5.7636 44.9379 7.16304L42.4066 8.25554Z" fill="#3B1000"/>
</g>
<mask id="mask7_7_381" style="mask-type:luminance" maskUnits="userSpaceOnUse" x="38" y="8" width="21" height="29">
<path d="M52.3971 9.74082C52.3971 9.74082 51.1266 8.05737 48.5855 8.05737C46.0444 8.05737 44.7739 9.74082 44.7739 9.74082C39.8733 14.3482 34.9727 26.1378 40.9623 29.5047C46.9518 32.8716 48.5855 36.4156 48.5855 36.4156C48.5855 36.4156 50.219 32.8716 56.2087 29.5047C62.1983 26.1378 57.2977 14.3482 52.3971 9.74082Z" fill="white"/>
</mask>
<g mask="url(#mask7_7_381)">
<path opacity="0.27" d="M37.8257 20.8791C37.8257 20.8791 41.2086 13.6836 48.3901 13.6698C55.5641 13.6559 58.9719 20.4554 58.9719 20.4554C58.9719 20.4554 57.2998 3.43335 48.286 3.43335C39.2722 3.43335 37.8257 20.8791 37.8257 20.8791Z" fill="#E1926A"/>
</g>
<mask id="mask8_7_381" style="mask-type:luminance" maskUnits="userSpaceOnUse" x="38" y="8" width="21" height="29">
<path d="M52.3971 9.74082C52.3971 9.74082 51.1266 8.05737 48.5855 8.05737C46.0444 8.05737 44.7739 9.74082 44.7739 9.74082C39.8733 14.3482 34.9727 26.1378 40.9623 29.5047C46.9518 32.8716 48.5855 36.4156 48.5855 36.4156C48.5855 36.4156 50.219 32.8716 56.2087 29.5047C62.1983 26.1378 57.2977 14.3482 52.3971 9.74082Z" fill="white"/>
</mask>
<g mask="url(#mask8_7_381)">
<path d="M44.8627 21.588H42.6159C40.8464 21.588 39.4119 20.1535 39.4119 18.384V16.8871C39.4119 15.9459 40.1747 15.1831 41.1159 15.1831H45.7303C46.785 15.1831 47.64 16.0381 47.64 17.0927V18.8107C47.64 20.3446 46.3966 21.588 44.8627 21.588Z" fill="#150D03"/>
<path d="M52.1245 21.588H54.3712C56.1407 21.588 57.5752 20.1535 57.5752 18.384V16.8871C57.5752 15.9459 56.8124 15.1831 55.8712 15.1831H51.2568C50.2021 15.1831 49.3471 16.0381 49.3471 17.0927V18.8107C49.3473 20.3446 50.5908 21.588 52.1245 21.588Z" fill="#150D03"/>
<path d="M49.4975 16.9308H47.4132V18.4384H49.4975V16.9308Z" fill="#150D03"/>
</g>
<mask id="mask9_7_381" style="mask-type:luminance" maskUnits="userSpaceOnUse" x="38" y="8" width="21" height="29">
<path d="M52.3971 9.74082C52.3971 9.74082 51.1266 8.05737 48.5855 8.05737C46.0444 8.05737 44.7739 9.74082 44.7739 9.74082C39.8733 14.3482 34.9727 26.1378 40.9623 29.5047C46.9518 32.8716 48.5855 36.4156 48.5855 36.4156C48.5855 36.4156 50.219 32.8716 56.2087 29.5047C62.1983 26.1378 57.2977 14.3482 52.3971 9.74082Z" fill="white"/>
</mask>
<g mask="url(#mask9_7_381)">
<path d="M46.9883 24.7936H50.1827" stroke="#E58B5E" stroke-width="1.9495" stroke-miterlimit="10" stroke-linecap="round" stroke-linejoin="round"/>
</g>
<path opacity="0.34" d="M28.5239 61.3392L5 0H93.2008L69.2074 61.3392H28.5239Z" fill="url(#paint0_linear_7_381)"/>
<path d="M71.1418 64.0414H26.852C25.9428 64.0414 25.2056 63.3043 25.2056 62.395V62.3174C25.2056 61.4082 25.9428 60.671 26.852 60.671H71.1418C72.051 60.671 72.7882 61.4082 72.7882 62.3174V62.395C72.7882 63.3043 72.051 64.0414 71.1418 64.0414Z" fill="#BFBFBF"/>
<path d="M67.0887 64.0414H30.6334C29.4659 64.0414 28.5192 63.0949 28.5192 61.9272V40.9991C28.5192 39.8315 29.4657 38.885 30.6334 38.885H67.0887C68.2562 38.885 69.2029 39.8315 69.2029 40.9991V61.9272C69.2027 63.0947 68.2562 64.0414 67.0887 64.0414Z" fill="#D8D8D8"/>
<path d="M48.8048 55.1993C46.9904 55.1993 45.5144 53.7232 45.5144 51.9089C45.5144 50.0945 46.9904 48.6184 48.8048 48.6184C50.619 48.6184 52.0953 50.0945 52.0953 51.9089C52.0953 53.7232 50.619 55.1993 48.8048 55.1993Z" fill="#F9F9F9"/>
<path d="M51.1343 47.5083C49.5694 46.6735 47.6813 46.6735 46.1165 47.5083C44.5467 48.3458 43.0797 50.0582 44.5655 53.5104C44.5655 53.5104 43.7692 56.1562 46.2935 55.5621C46.2935 55.5621 46.6984 55.4947 46.6716 56.1021V56.1109V56.4663C46.6716 56.7022 46.863 56.8937 47.099 56.8937H47.1118C47.3479 56.8937 47.5392 56.7022 47.5392 56.4663V56.1109H47.7531H48.2023V56.4663C48.2023 56.7022 48.3938 56.8937 48.6298 56.8937H48.6425C48.8785 56.8937 49.07 56.7022 49.07 56.4663V56.1109H49.4975H49.6386H49.7048V56.4663C49.7048 56.7022 49.8963 56.8937 50.1323 56.8937H50.1451C50.381 56.8937 50.5725 56.7022 50.5725 56.4663V56.1109H50.5792V56.1021C50.5522 55.4947 50.9573 55.5621 50.9573 55.5621C53.4814 56.156 52.6852 53.5104 52.6852 53.5104C54.1711 50.0582 52.7042 48.3458 51.1343 47.5083ZM46.7545 53.5719C46.1498 53.5719 45.6594 53.0817 45.6594 52.4769C45.6594 51.872 46.1496 51.3818 46.7545 51.3818C47.3593 51.3818 47.8495 51.872 47.8495 52.4769C47.8495 53.0817 47.3591 53.5719 46.7545 53.5719ZM48.2562 54.4433C48.2756 54.2193 48.4403 54.0492 48.6363 54.0492C48.8323 54.0492 48.9969 54.2193 49.0163 54.4433C49.0245 54.5388 49.0288 54.6495 49.0288 54.7777C49.0288 54.9741 48.9865 54.9972 48.9163 54.9627C48.7384 54.8753 48.5343 54.8749 48.3566 54.9625C48.2862 54.9972 48.2437 54.9743 48.2437 54.7775C48.2435 54.6495 48.248 54.539 48.2562 54.4433ZM50.4361 53.5719C49.8315 53.5719 49.3411 53.0817 49.3411 52.4769C49.3411 51.872 49.8313 51.3818 50.4361 51.3818C51.041 51.3818 51.5312 51.872 51.5312 52.4769C51.5312 53.0817 51.041 53.5719 50.4361 53.5719Z" fill="#1E1C1C"/>
<defs>
<linearGradient id="paint0_linear_7_381" x1="49.1004" y1="61.3392" x2="49.1004" y2="0" gradientUnits="userSpaceOnUse">
<stop offset="0.0016" stop-color="white" stop-opacity="0.8"/>
<stop offset="0.8844" stop-color="white" stop-opacity="0"/>
</linearGradient>
</defs>
</svg>
