<svg width="62" height="27" viewBox="0 0 62 27" fill="none" xmlns="http://www.w3.org/2000/svg">
<g filter="url(#filter0_d_8_408)">
<rect x="4.25" y="0.25" width="53.5" height="18.5" stroke="white" stroke-width="0.5" shape-rendering="crispEdges"/>
</g>
<line x1="44" y1="14.5" x2="55" y2="14.5" stroke="white"/>
<line x1="44.5" y1="11" x2="44.5" y2="14" stroke="white"/>
<line x1="54.5" y1="11" x2="54.5" y2="14" stroke="white"/>
<line x1="46.4" y1="8.7" x2="49.4" y2="12.7" stroke="white"/>
<line x1="49.6" y1="12.7" x2="52.6" y2="8.7" stroke="white"/>
<line x1="49.5" y1="13" x2="49.5" y2="12" stroke="white"/>
<line x1="49.5" y1="12" x2="49.5" y2="4" stroke="white"/>
<path d="M10.5122 7.43902V7.14634H9.04878V9.19512H10.5122V8.90244H10.8049V7.43902H10.5122ZM11.9756 10.3659H12.2683V13H10.8049V10.6585H9.04878V13H7.58537V5.68293H11.0976V5.97561H11.6829V6.26829H11.9756V6.85366H12.2683V9.48781H11.9756V9.78049H11.6829V10.0732H11.9756V10.3659ZM14.9082 11.5366V11.8293H16.0789V11.5366H16.3716V11.2439H17.835V11.8293H17.5423V12.4146H17.2496V12.7073H16.6643V13H14.3228V12.7073H13.7374V12.4146H13.4447V11.8293H13.1521V8.60976H13.4447V8.02439H13.7374V7.73171H14.3228V7.43902H16.6643V7.73171H17.2496V8.02439H17.5423V8.60976H17.835V10.6585H14.6155V11.5366H14.9082ZM14.6155 8.90244V9.78049H16.3716V8.90244H16.0789V8.60976H14.9082V8.90244H14.6155ZM19.8889 11.2439V11.5366H20.1816V11.8293H21.3523V11.5366H21.645V10.9512H21.3523V10.6585H19.5962V10.3659H19.0109V10.0732H18.7182V9.48781H18.4255V8.60976H18.7182V8.02439H19.0109V7.73171H19.5962V7.43902H21.9377V7.73171H22.5231V8.02439H22.8157V8.90244H21.3523V8.60976H20.1816V8.90244H19.8889V9.19512H20.1816V9.48781H21.9377V9.78049H22.5231V10.0732H22.8157V10.6585H23.1084V11.8293H22.8157V12.4146H22.5231V12.7073H21.9377V13H19.5962V12.7073H19.0109V12.4146H18.7182V11.8293H18.4255V11.2439H19.8889ZM23.9916 12.4146V11.8293H23.6989V7.43902H25.1623V11.5366H25.455V11.8293H26.6258V11.5366H26.9184V7.43902H28.3819V13H26.9184V12.7073H26.6258V13H24.8697V12.7073H24.2843V12.4146H23.9916ZM31.3141 8.60976V8.90244H31.0214V13H29.558V7.43902H31.0214V7.73171H31.3141V7.43902H32.7775V7.73171H33.0702V8.02439H33.3629V7.73171H33.6556V7.43902H35.119V7.73171H35.7044V8.02439H35.997V8.60976H36.2897V13H34.8263V8.90244H34.5336V8.60976H33.9483V8.90244H33.6556V13H32.1922V8.90244H31.8995V8.60976H31.3141ZM38.6269 11.5366V11.8293H39.7976V11.5366H40.0903V11.2439H41.5537V11.8293H41.2611V12.4146H40.9684V12.7073H40.383V13H38.0415V12.7073H37.4562V12.4146H37.1635V11.8293H36.8708V8.60976H37.1635V8.02439H37.4562V7.73171H38.0415V7.43902H40.383V7.73171H40.9684V8.02439H41.2611V8.60976H41.5537V10.6585H38.3342V11.5366H38.6269ZM38.3342 8.90244V9.78049H40.0903V8.90244H39.7976V8.60976H38.6269V8.90244H38.3342Z" fill="white"/>
<defs>
<filter id="filter0_d_8_408" x="0" y="0" width="62" height="27" filterUnits="userSpaceOnUse" color-interpolation-filters="sRGB">
<feFlood flood-opacity="0" result="BackgroundImageFix"/>
<feColorMatrix in="SourceAlpha" type="matrix" values="0 0 0 0 0 0 0 0 0 0 0 0 0 0 0 0 0 0 127 0" result="hardAlpha"/>
<feOffset dy="4"/>
<feGaussianBlur stdDeviation="2"/>
<feComposite in2="hardAlpha" operator="out"/>
<feColorMatrix type="matrix" values="0 0 0 0 0 0 0 0 0 0 0 0 0 0 0 0 0 0 0.25 0"/>
<feBlend mode="normal" in2="BackgroundImageFix" result="effect1_dropShadow_8_408"/>
<feBlend mode="normal" in="SourceGraphic" in2="effect1_dropShadow_8_408" result="shape"/>
</filter>
</defs>
</svg>
