<svg width="305" height="84" viewBox="0 0 305 84" fill="none" xmlns="http://www.w3.org/2000/svg">
<ellipse cx="21.3018" cy="6.58021" rx="2.30184" ry="2.33491" fill="white"/>
<ellipse cx="21.3018" cy="6.58021" rx="2.30184" ry="2.33491" fill="white"/>
<path d="M23.1099 0.545231L23.9733 0.967322L21.7991 5.80156L19.837 4.89358L23.1373 0.508789L23.1099 0.545231Z" fill="white"/>
<ellipse cx="30.3018" cy="6.58021" rx="2.30184" ry="2.33491" fill="white"/>
<ellipse cx="30.3018" cy="6.58021" rx="2.30184" ry="2.33491" fill="white"/>
<path d="M32.1099 0.545231L32.9733 0.967322L30.7991 5.80156L28.837 4.89358L32.1373 0.508789L32.1099 0.545231Z" fill="white"/>
<ellipse cx="272.302" cy="58.5802" rx="2.30184" ry="2.33491" fill="white"/>
<ellipse cx="272.302" cy="58.5802" rx="2.30184" ry="2.33491" fill="white"/>
<path d="M274.11 52.5452L274.973 52.9673L272.799 57.8016L270.837 56.8936L274.137 52.5088L274.11 52.5452Z" fill="white"/>
<ellipse cx="282.302" cy="58.5802" rx="2.30184" ry="2.33491" fill="white"/>
<ellipse cx="282.302" cy="58.5802" rx="2.30184" ry="2.33491" fill="white"/>
<path d="M284.11 52.5452L284.973 52.9673L282.799 57.8016L280.837 56.8936L284.137 52.5088L284.11 52.5452Z" fill="white"/>
<path d="M7.82927 14.3297V15.0614H7.46341V14.3297H7.09756V13.598H6.73171V11.7688H8.56098V13.598H8.19512V14.3297H7.82927ZM10.3902 14.3297V15.0614H10.0244V14.3297H9.65854V13.598H9.29268V11.7688H11.122V13.598H10.7561V14.3297H10.3902ZM14.7862 18.72V19.0858H16.6155V18.72H16.9813V17.9883H18.8106V19.4517H18.4447V20.1834H18.0789V20.5492H17.3472V20.9151H14.0545V20.5492H13.3228V20.1834H12.9569V19.4517H12.5911V13.2322H12.9569V12.5005H13.3228V12.1346H14.0545V11.7688H17.3472V12.1346H18.0789V12.5005H18.4447V13.2322H18.8106V14.6956H16.9813V13.9639H16.6155V13.598H14.7862V13.9639H14.4204V18.72H14.7862ZM22.462 15.4273V15.7931H22.0961V20.9151H20.2669V11.7688H22.0961V14.3297H22.462V13.9639H24.6571V14.3297H25.3888V14.6956H25.7547V15.4273H26.1205V20.9151H24.2913V15.7931H23.9254V15.4273H22.462ZM29.0541 17.9883V18.3541H28.6883V19.0858H29.0541V19.4517H30.5176V19.0858H30.8834V17.9883H29.0541ZM27.2249 20.1834V19.4517H26.859V18.3541H27.2249V17.6224H27.5907V17.2566H28.3224V16.8907H30.8834V15.7931H30.5176V15.4273H29.0541V15.7931H28.6883V16.159H26.859V15.4273H27.2249V14.6956H27.5907V14.3297H28.3224V13.9639H31.2493V14.3297H31.981V14.6956H32.3468V15.4273H32.7127V20.9151H30.8834V20.5492H30.5176V20.9151H27.9566V20.5492H27.5907V20.1834H27.2249ZM36.378 15.4273V15.7931H36.0121V20.9151H34.1829V13.9639H36.0121V14.3297H36.378V13.9639H38.5731V14.3297H39.3048V14.6956H39.6707V15.4273H40.0365V20.9151H38.2073V15.7931H37.8414V15.4273H36.378ZM42.9702 18.3541V18.72H44.4336V18.3541H44.7994V15.4273H42.9702V15.7931H42.6043V18.3541H42.9702ZM42.6043 20.9151V21.281H42.9702V21.6468H44.4336V21.281H44.7994V19.8175H44.4336V20.1834H42.2384V19.8175H41.5067V19.4517H41.1409V18.72H40.775V15.4273H41.1409V14.6956H41.5067V14.3297H42.2384V13.9639H46.6287V21.6468H46.2628V22.3785H45.897V22.7444H45.1653V23.1102H42.2384V22.7444H41.5067V22.3785H41.1409V21.6468H40.775V20.9151H42.6043ZM49.9282 19.0858V19.4517H51.3916V19.0858H51.7574V18.72H53.5867V19.4517H53.2208V20.1834H52.855V20.5492H52.1233V20.9151H49.1965V20.5492H48.4647V20.1834H48.0989V19.4517H47.733V15.4273H48.0989V14.6956H48.4647V14.3297H49.1965V13.9639H52.1233V14.3297H52.855V14.6956H53.2208V15.4273H53.5867V17.9883H49.5623V19.0858H49.9282ZM49.5623 15.7931V16.8907H51.7574V15.7931H51.3916V15.4273H49.9282V15.7931H49.5623ZM60.1821 11.7688V13.2322H58.3528V11.7688H60.1821ZM60.1821 14.3297V20.9151H58.3528V14.3297H60.1821ZM63.1121 18.72V19.0858H63.478V19.4517H64.9414V19.0858H65.3072V18.3541H64.9414V17.9883H62.7463V17.6224H62.0146V17.2566H61.6487V16.5249H61.2828V15.4273H61.6487V14.6956H62.0146V14.3297H62.7463V13.9639H65.6731V14.3297H66.4048V14.6956H66.7707V15.7931H64.9414V15.4273H63.478V15.7931H63.1121V16.159H63.478V16.5249H65.6731V16.8907H66.4048V17.2566H66.7707V17.9883H67.1365V19.4517H66.7707V20.1834H66.4048V20.5492H65.6731V20.9151H62.7463V20.5492H62.0146V20.1834H61.6487V19.4517H61.2828V18.72H63.1121ZM73.7319 11.7688V13.2322H71.9026V11.7688H73.7319ZM73.7319 14.3297V20.9151H71.9026V14.3297H73.7319ZM77.3936 15.4273V15.7931H77.0278V20.9151H75.1985V13.9639H77.0278V14.3297H77.3936V13.9639H79.5887V14.3297H80.3205V14.6956H80.6863V15.4273H81.0522V20.9151H79.2229V15.7931H78.857V15.4273H77.3936ZM83.9858 19.0858V19.4517H85.4492V19.0858H85.815V18.72H87.6443V19.4517H87.2785V20.1834H86.9126V20.5492H86.1809V20.9151H83.2541V20.5492H82.5224V20.1834H82.1565V19.4517H81.7907V15.4273H82.1565V14.6956H82.5224V14.3297H83.2541V13.9639H86.1809V14.3297H86.9126V14.6956H87.2785V15.4273H87.6443V17.9883H83.6199V19.0858H83.9858ZM83.6199 15.7931V16.8907H85.815V15.7931H85.4492V15.4273H83.9858V15.7931H83.6199ZM90.9434 18.3541V18.72H91.3093V19.0858H92.041V18.72H92.4068V18.3541H92.7727V13.9639H94.602V18.72H94.2361V19.0858H93.8703V19.4517H93.5044V19.8175H93.1386V20.1834H92.7727V20.5492H92.4068V20.9151H90.9434V20.5492H90.5776V20.1834H90.2117V19.8175H89.8459V19.4517H89.48V19.0858H89.1142V18.72H88.7483V13.9639H90.5776V18.3541H90.9434ZM97.9018 11.7688V13.2322H96.0725V11.7688H97.9018ZM97.9018 14.3297V20.9151H96.0725V14.3297H97.9018ZM101.564 19.0858V19.4517H102.661V20.9151H100.832V20.5492H100.1V20.1834H99.7343V19.4517H99.3684V15.7931H98.6367V14.3297H99.3684V13.598H99.7343V13.2322H100.1V12.8663H100.466V12.5005H100.832V12.1346H101.198V14.3297H102.661V15.7931H101.198V19.0858H101.564ZM105.592 17.9883V18.3541H105.226V19.0858H105.592V19.4517H107.056V19.0858H107.421V17.9883H105.592ZM103.763 20.1834V19.4517H103.397V18.3541H103.763V17.6224H104.129V17.2566H104.861V16.8907H107.421V15.7931H107.056V15.4273H105.592V15.7931H105.226V16.159H103.397V15.4273H103.763V14.6956H104.129V14.3297H104.861V13.9639H107.787V14.3297H108.519V14.6956H108.885V15.4273H109.251V20.9151H107.421V20.5492H107.056V20.9151H104.495V20.5492H104.129V20.1834H103.763ZM116.209 15.4273H116.575V19.4517H116.209V20.1834H115.843V20.5492H115.111V20.9151H110.721V11.7688H112.55V14.3297H112.916V13.9639H115.111V14.3297H115.843V14.6956H116.209V15.4273ZM114.38 19.0858H114.745V15.7931H114.38V15.4273H112.916V15.7931H112.55V19.4517H114.38V19.0858ZM119.508 11.7688V20.9151H117.679V11.7688H119.508ZM122.804 19.0858V19.4517H124.268V19.0858H124.633V18.72H126.463V19.4517H126.097V20.1834H125.731V20.5492H124.999V20.9151H122.072V20.5492H121.341V20.1834H120.975V19.4517H120.609V15.4273H120.975V14.6956H121.341V14.3297H122.072V13.9639H124.999V14.3297H125.731V14.6956H126.097V15.4273H126.463V17.9883H122.438V19.0858H122.804ZM122.438 15.7931V16.8907H124.633V15.7931H124.268V15.4273H122.804V15.7931H122.438ZM129.396 19.0858V21.281H129.03V21.6468H128.664V22.0127H128.298V22.3785H127.567V22.0127H127.933V21.6468H128.298V20.9151H127.567V19.0858H129.396ZM140.012 15.4273H140.378V19.4517H140.012V20.1834H139.647V20.5492H138.915V20.9151H134.525V11.7688H136.354V14.3297H136.72V13.9639H138.915V14.3297H139.647V14.6956H140.012V15.4273ZM138.183 19.0858H138.549V15.7931H138.183V15.4273H136.72V15.7931H136.354V19.4517H138.183V19.0858ZM141.483 20.1834V19.4517H141.117V13.9639H142.946V19.0858H143.312V19.4517H144.775V19.0858H145.141V13.9639H146.97V20.9151H145.141V20.5492H144.775V20.9151H142.58V20.5492H141.849V20.1834H141.483ZM150.636 19.0858V19.4517H151.733V20.9151H149.904V20.5492H149.172V20.1834H148.807V19.4517H148.441V15.7931H147.709V14.3297H148.441V13.598H148.807V13.2322H149.172V12.8663H149.538V12.5005H149.904V12.1346H150.27V14.3297H151.733V15.7931H150.27V19.0858H150.636ZM158.327 18.3541V18.72H159.79V18.3541H160.156V15.4273H158.327V15.7931H157.961V18.3541H158.327ZM157.961 20.9151V21.281H158.327V21.6468H159.79V21.281H160.156V19.8175H159.79V20.1834H157.595V19.8175H156.863V19.4517H156.497V18.72H156.131V15.4273H156.497V14.6956H156.863V14.3297H157.595V13.9639H161.985V21.6468H161.619V22.3785H161.253V22.7444H160.522V23.1102H157.595V22.7444H156.863V22.3785H156.497V21.6468H156.131V20.9151H157.961ZM165.65 15.4273V15.7931H165.285V20.9151H163.455V13.9639H165.285V14.3297H165.65V13.9639H167.846V14.3297H168.211V14.6956H168.577V15.0614H168.211V15.4273H167.846V15.7931H167.48V16.159H167.114V15.7931H166.748V15.4273H165.65ZM173.339 20.5492V20.9151H170.412V20.5492H169.681V20.1834H169.315V19.4517H168.949V15.4273H169.315V14.6956H169.681V14.3297H170.412V13.9639H173.339V14.3297H174.071V14.6956H174.437V15.4273H174.803V19.4517H174.437V20.1834H174.071V20.5492H173.339ZM171.144 19.0858V19.4517H172.607V19.0858H172.973V15.7931H172.607V15.4273H171.144V15.7931H170.778V19.0858H171.144ZM178.102 18.3541V18.72H178.467V19.0858H178.833V18.72H179.199V18.3541H179.565V13.9639H181.394V18.3541H181.76V18.72H182.126V19.0858H182.492V18.72H182.858V18.3541H183.224V13.9639H185.053V18.72H184.687V19.0858H184.321V19.4517H183.955V19.8175H183.589V20.1834H183.224V20.5492H182.858V20.9151H181.76V20.5492H181.394V20.1834H181.028V19.8175H180.663V19.4517H180.297V19.8175H179.931V20.1834H179.565V20.5492H179.199V20.9151H178.102V20.5492H177.736V20.1834H177.37V19.8175H177.004V19.4517H176.638V19.0858H176.272V18.72H175.907V13.9639H177.736V18.3541H178.102ZM188.707 19.0858V19.4517H189.805V20.9151H187.975V20.5492H187.244V20.1834H186.878V19.4517H186.512V15.7931H185.78V14.3297H186.512V13.598H186.878V13.2322H187.244V12.8663H187.61V12.5005H187.975V12.1346H188.341V14.3297H189.805V15.7931H188.341V19.0858H188.707ZM193.102 15.4273V15.7931H192.736V20.9151H190.907V11.7688H192.736V14.3297H193.102V13.9639H195.297V14.3297H196.028V14.6956H196.394V15.4273H196.76V20.9151H194.931V15.7931H194.565V15.4273H193.102ZM203.356 11.7688V13.2322H201.527V11.7688H203.356ZM203.356 14.3297V20.9151H201.527V14.3297H203.356ZM206.286 18.72V19.0858H206.652V19.4517H208.115V19.0858H208.481V18.3541H208.115V17.9883H205.92V17.6224H205.188V17.2566H204.823V16.5249H204.457V15.4273H204.823V14.6956H205.188V14.3297H205.92V13.9639H208.847V14.3297H209.579V14.6956H209.944V15.7931H208.115V15.4273H206.652V15.7931H206.286V16.159H206.652V16.5249H208.847V16.8907H209.579V17.2566H209.944V17.9883H210.31V19.4517H209.944V20.1834H209.579V20.5492H208.847V20.9151H205.92V20.5492H205.188V20.1834H204.823V19.4517H204.457V18.72H206.286ZM219.101 20.5492V20.9151H216.174V20.5492H215.442V20.1834H215.076V19.4517H214.711V15.4273H215.076V14.6956H215.442V14.3297H216.174V13.9639H219.101V14.3297H219.833V14.6956H220.198V15.4273H220.564V19.4517H220.198V20.1834H219.833V20.5492H219.101ZM216.906 19.0858V19.4517H218.369V19.0858H218.735V15.7931H218.369V15.4273H216.906V15.7931H216.54V19.0858H216.906ZM221.668 13.9639H223.497V14.3297H223.863V13.9639H226.058V14.3297H226.79V14.6956H227.156V15.4273H227.522V19.4517H227.156V20.1834H226.79V20.5492H226.058V20.9151H223.497V23.1102H221.668V13.9639ZM225.327 19.0858H225.693V15.7931H225.327V15.4273H223.863V15.7931H223.497V19.4517H225.327V19.0858ZM230.821 19.0858V19.4517H231.919V20.9151H230.09V20.5492H229.358V20.1834H228.992V19.4517H228.626V15.7931H227.895V14.3297H228.626V13.598H228.992V13.2322H229.358V12.8663H229.724V12.5005H230.09V12.1346H230.456V14.3297H231.919V15.7931H230.456V19.0858H230.821ZM234.85 11.7688V13.2322H233.021V11.7688H234.85ZM234.85 14.3297V20.9151H233.021V14.3297H234.85ZM240.341 20.5492V20.9151H237.414V20.5492H236.683V20.1834H236.317V19.4517H235.951V15.4273H236.317V14.6956H236.683V14.3297H237.414V13.9639H240.341V14.3297H241.073V14.6956H241.439V15.4273H241.804V19.4517H241.439V20.1834H241.073V20.5492H240.341ZM238.146 19.0858V19.4517H239.609V19.0858H239.975V15.7931H239.609V15.4273H238.146V15.7931H237.78V19.0858H238.146ZM245.104 15.4273V15.7931H244.738V20.9151H242.908V13.9639H244.738V14.3297H245.104V13.9639H247.299V14.3297H248.03V14.6956H248.396V15.4273H248.762V20.9151H246.933V15.7931H246.567V15.4273H245.104ZM251.696 17.9883V18.3541H251.33V19.0858H251.696V19.4517H253.159V19.0858H253.525V17.9883H251.696ZM249.866 20.1834V19.4517H249.501V18.3541H249.866V17.6224H250.232V17.2566H250.964V16.8907H253.525V15.7931H253.159V15.4273H251.696V15.7931H251.33V16.159H249.501V15.4273H249.866V14.6956H250.232V14.3297H250.964V13.9639H253.891V14.3297H254.623V14.6956H254.988V15.4273H255.354V20.9151H253.525V20.5492H253.159V20.9151H250.598V20.5492H250.232V20.1834H249.866ZM258.654 11.7688V20.9151H256.824V11.7688H258.654ZM261.95 19.0858V20.9151H260.12V19.0858H261.95ZM268.908 11.7688V20.9151H267.078V11.7688H268.908ZM272.569 19.0858V19.4517H273.667V20.9151H271.838V20.5492H271.106V20.1834H270.74V19.4517H270.374V15.7931H269.643V14.3297H270.374V13.598H270.74V13.2322H271.106V12.8663H271.472V12.5005H271.838V12.1346H272.204V14.3297H273.667V15.7931H272.204V19.0858H272.569ZM280.26 11.7688V13.2322H278.431V11.7688H280.26ZM280.26 14.3297V20.9151H278.431V14.3297H280.26ZM283.19 18.72V19.0858H283.556V19.4517H285.02V19.0858H285.385V18.3541H285.02V17.9883H282.824V17.6224H282.093V17.2566H281.727V16.5249H281.361V15.4273H281.727V14.6956H282.093V14.3297H282.824V13.9639H285.751V14.3297H286.483V14.6956H286.849V15.7931H285.02V15.4273H283.556V15.7931H283.19V16.159H283.556V16.5249H285.751V16.8907H286.483V17.2566H286.849V17.9883H287.215V19.4517H286.849V20.1834H286.483V20.5492H285.751V20.9151H282.824V20.5492H282.093V20.1834H281.727V19.4517H281.361V18.72H283.19ZM10.7561 35.5492V35.9151H7.82927V35.5492H7.09756V35.1834H6.73171V34.4517H6.36585V30.4273H6.73171V29.6956H7.09756V29.3297H7.82927V28.9639H10.7561V29.3297H11.4878V29.6956H11.8537V30.4273H12.2195V34.4517H11.8537V35.1834H11.4878V35.5492H10.7561ZM8.56098 34.0858V34.4517H10.0244V34.0858H10.3902V30.7931H10.0244V30.4273H8.56098V30.7931H8.19512V34.0858H8.56098ZM13.3235 35.1834V34.4517H12.9577V28.9639H14.7869V34.0858H15.1528V34.4517H16.6162V34.0858H16.982V28.9639H18.8113V35.9151H16.982V35.5492H16.6162V35.9151H14.4211V35.5492H13.6894V35.1834H13.3235ZM22.4766 30.4273V30.7931H22.1108V35.9151H20.2815V28.9639H22.1108V29.3297H22.4766V28.9639H24.6718V29.3297H25.0376V29.6956H25.4035V30.0614H25.0376V30.4273H24.6718V30.7931H24.3059V31.159H23.94V30.7931H23.5742V30.4273H22.4766ZM31.6323 34.0858V34.4517H33.0957V34.0858H33.4615V33.3541H35.2908V34.4517H34.9249V35.1834H34.5591V35.5492H33.8274V35.9151H30.9006V35.5492H30.1688V35.1834H29.803V34.4517H29.4371V30.4273H29.803V29.6956H30.1688V29.3297H30.9006V28.9639H33.8274V29.3297H34.5591V29.6956H34.9249V30.4273H35.2908V31.5249H33.4615V30.7931H33.0957V30.4273H31.6323V30.7931H31.2664V34.0858H31.6323ZM38.5899 30.4273V30.7931H38.2241V35.9151H36.3948V26.7688H38.2241V29.3297H38.5899V28.9639H40.785V29.3297H41.5167V29.6956H41.8826V30.4273H42.2485V35.9151H40.4192V30.7931H40.0533V30.4273H38.5899ZM47.3772 35.5492V35.9151H44.4504V35.5492H43.7187V35.1834H43.3528V34.4517H42.9869V30.4273H43.3528V29.6956H43.7187V29.3297H44.4504V28.9639H47.3772V29.3297H48.1089V29.6956H48.4748V30.4273H48.8406V34.4517H48.4748V35.1834H48.1089V35.5492H47.3772ZM45.1821 34.0858V34.4517H46.6455V34.0858H47.0113V30.7931H46.6455V30.4273H45.1821V30.7931H44.8162V34.0858H45.1821ZM51.7739 26.7688V28.2322H49.9446V26.7688H51.7739ZM51.7739 29.3297V35.9151H49.9446V29.3297H51.7739ZM55.0698 34.0858V34.4517H56.5332V34.0858H56.899V33.3541H58.7283V34.4517H58.3624V35.1834H57.9966V35.5492H57.2649V35.9151H54.3381V35.5492H53.6063V35.1834H53.2405V34.4517H52.8746V30.4273H53.2405V29.6956H53.6063V29.3297H54.3381V28.9639H57.2649V29.3297H57.9966V29.6956H58.3624V30.4273H58.7283V31.5249H56.899V30.7931H56.5332V30.4273H55.0698V30.7931H54.7039V34.0858H55.0698ZM61.6616 34.0858V34.4517H63.125V34.0858H63.4908V33.72H65.3201V34.4517H64.9542V35.1834H64.5884V35.5492H63.8567V35.9151H60.9299V35.5492H60.1981V35.1834H59.8323V34.4517H59.4664V30.4273H59.8323V29.6956H60.1981V29.3297H60.9299V28.9639H63.8567V29.3297H64.5884V29.6956H64.9542V30.4273H65.3201V32.9883H61.2957V34.0858H61.6616ZM61.2957 30.7931V31.8907H63.4908V30.7931H63.125V30.4273H61.6616V30.7931H61.2957ZM72.2813 33.3541V33.72H72.6472V34.0858H73.013V33.72H73.3789V33.3541H73.7447V28.9639H75.574V33.3541H75.9399V33.72H76.3057V34.0858H76.6716V33.72H77.0374V33.3541H77.4033V28.9639H79.2325V33.72H78.8667V34.0858H78.5008V34.4517H78.135V34.8175H77.7691V35.1834H77.4033V35.5492H77.0374V35.9151H75.9399V35.5492H75.574V35.1834H75.2082V34.8175H74.8423V34.4517H74.4764V34.8175H74.1106V35.1834H73.7447V35.5492H73.3789V35.9151H72.2813V35.5492H71.9155V35.1834H71.5496V34.8175H71.1838V34.4517H70.8179V34.0858H70.4521V33.72H70.0862V28.9639H71.9155V33.3541H72.2813ZM82.8868 30.4273V30.7931H82.5209V35.9151H80.6917V26.7688H82.5209V29.3297H82.8868V28.9639H85.0819V29.3297H85.8136V29.6956H86.1795V30.4273H86.5453V35.9151H84.7161V30.7931H84.3502V30.4273H82.8868ZM89.4789 34.0858V34.4517H90.9424V34.0858H91.3082V33.72H93.1375V34.4517H92.7716V35.1834H92.4058V35.5492H91.6741V35.9151H88.7472V35.5492H88.0155V35.1834H87.6497V34.4517H87.2838V30.4273H87.6497V29.6956H88.0155V29.3297H88.7472V28.9639H91.6741V29.3297H92.4058V29.6956H92.7716V30.4273H93.1375V32.9883H89.1131V34.0858H89.4789ZM89.1131 30.7931V31.8907H91.3082V30.7931H90.9424V30.4273H89.4789V30.7931H89.1131ZM96.4366 34.0858V34.4517H97.5342V35.9151H95.7049V35.5492H94.9732V35.1834H94.6073V34.4517H94.2415V30.7931H93.5098V29.3297H94.2415V28.598H94.6073V28.2322H94.9732V27.8663H95.339V27.5005H95.7049V27.1346H96.0707V29.3297H97.5342V30.7931H96.0707V34.0858H96.4366ZM100.831 30.4273V30.7931H100.465V35.9151H98.636V26.7688H100.465V29.3297H100.831V28.9639H103.026V29.3297H103.758V29.6956H104.124V30.4273H104.49V35.9151H102.66V30.7931H102.295V30.4273H100.831ZM107.423 34.0858V34.4517H108.887V34.0858H109.253V33.72H111.082V34.4517H110.716V35.1834H110.35V35.5492H109.618V35.9151H106.692V35.5492H105.96V35.1834H105.594V34.4517H105.228V30.4273H105.594V29.6956H105.96V29.3297H106.692V28.9639H109.618V29.3297H110.35V29.6956H110.716V30.4273H111.082V32.9883H107.057V34.0858H107.423ZM107.057 30.7931V31.8907H109.253V30.7931H108.887V30.4273H107.423V30.7931H107.057ZM114.381 30.4273V30.7931H114.015V35.9151H112.186V28.9639H114.015V29.3297H114.381V28.9639H116.576V29.3297H116.942V29.6956H117.308V30.0614H116.942V30.4273H116.576V30.7931H116.21V31.159H115.844V30.7931H115.478V30.4273H114.381ZM127.565 33.3541V33.72H127.93V34.0858H128.296V33.72H128.662V33.3541H129.028V28.9639H130.857V33.3541H131.223V33.72H131.589V34.0858H131.955V33.72H132.321V33.3541H132.686V28.9639H134.516V33.72H134.15V34.0858H133.784V34.4517H133.418V34.8175H133.052V35.1834H132.686V35.5492H132.321V35.9151H131.223V35.5492H130.857V35.1834H130.491V34.8175H130.125V34.4517H129.76V34.8175H129.394V35.1834H129.028V35.5492H128.662V35.9151H127.565V35.5492H127.199V35.1834H126.833V34.8175H126.467V34.4517H126.101V34.0858H125.735V33.72H125.369V28.9639H127.199V33.3541H127.565ZM137.804 34.0858V34.4517H139.268V34.0858H139.633V33.72H141.463V34.4517H141.097V35.1834H140.731V35.5492H139.999V35.9151H137.072V35.5492H136.341V35.1834H135.975V34.4517H135.609V30.4273H135.975V29.6956H136.341V29.3297H137.072V28.9639H139.999V29.3297H140.731V29.6956H141.097V30.4273H141.463V32.9883H137.438V34.0858H137.804ZM137.438 30.7931V31.8907H139.633V30.7931H139.268V30.4273H137.804V30.7931H137.438ZM148.058 32.9883V33.3541H147.692V34.0858H148.058V34.4517H149.521V34.0858H149.887V32.9883H148.058ZM146.229 35.1834V34.4517H145.863V33.3541H146.229V32.6224H146.595V32.2566H147.326V31.8907H149.887V30.7931H149.521V30.4273H148.058V30.7931H147.692V31.159H145.863V30.4273H146.229V29.6956H146.595V29.3297H147.326V28.9639H150.253V29.3297H150.985V29.6956H151.351V30.4273H151.717V35.9151H149.887V35.5492H149.521V35.9151H146.96V35.5492H146.595V35.1834H146.229ZM155.016 34.0858V34.4517H156.479V34.0858H156.845V30.4273H155.016V30.7931H154.65V34.0858H155.016ZM153.187 30.4273V29.6956H153.553V29.3297H154.284V28.9639H156.845V26.7688H158.675V35.9151H156.845V35.5492H156.479V35.9151H154.284V35.5492H153.553V35.1834H153.187V34.4517H152.821V30.4273H153.187ZM161.974 32.9883V33.3541H161.608V34.0858H161.974V34.4517H163.437V34.0858H163.803V32.9883H161.974ZM160.145 35.1834V34.4517H159.779V33.3541H160.145V32.6224H160.511V32.2566H161.242V31.8907H163.803V30.7931H163.437V30.4273H161.974V30.7931H161.608V31.159H159.779V30.4273H160.145V29.6956H160.511V29.3297H161.242V28.9639H164.169V29.3297H164.901V29.6956H165.267V30.4273H165.633V35.9151H163.803V35.5492H163.437V35.9151H160.877V35.5492H160.511V35.1834H160.145ZM167.103 28.9639H168.932V29.3297H169.298V28.9639H171.493V29.3297H172.225V29.6956H172.591V30.4273H172.956V34.4517H172.591V35.1834H172.225V35.5492H171.493V35.9151H168.932V38.1102H167.103V28.9639ZM170.761 34.0858H171.127V30.7931H170.761V30.4273H169.298V30.7931H168.932V34.4517H170.761V34.0858ZM176.256 34.0858V34.4517H177.353V35.9151H175.524V35.5492H174.793V35.1834H174.427V34.4517H174.061V30.7931H173.329V29.3297H174.061V28.598H174.427V28.2322H174.793V27.8663H175.158V27.5005H175.524V27.1346H175.89V29.3297H177.353V30.7931H175.89V34.0858H176.256ZM183.947 32.9883V33.3541H183.581V34.0858H183.947V34.4517H185.41V34.0858H185.776V32.9883H183.947ZM182.117 35.1834V34.4517H181.752V33.3541H182.117V32.6224H182.483V32.2566H183.215V31.8907H185.776V30.7931H185.41V30.4273H183.947V30.7931H183.581V31.159H181.752V30.4273H182.117V29.6956H182.483V29.3297H183.215V28.9639H186.142V29.3297H186.874V29.6956H187.239V30.4273H187.605V35.9151H185.776V35.5492H185.41V35.9151H182.849V35.5492H182.483V35.1834H182.117ZM191.271 30.4273V30.7931H190.905V35.9151H189.075V28.9639H190.905V29.3297H191.271V28.9639H193.466V29.3297H194.197V29.6956H194.563V30.4273H194.929V35.9151H193.1V30.7931H192.734V30.4273H191.271ZM197.863 34.0858V34.4517H199.326V34.0858H199.692V30.4273H197.863V30.7931H197.497V34.0858H197.863ZM196.033 30.4273V29.6956H196.399V29.3297H197.131V28.9639H199.692V26.7688H201.521V35.9151H199.692V35.5492H199.326V35.9151H197.131V35.5492H196.399V35.1834H196.033V34.4517H195.668V30.4273H196.033ZM208.483 33.3541V33.72H209.946V33.3541H210.312V30.4273H208.483V30.7931H208.117V33.3541H208.483ZM208.117 35.9151V36.281H208.483V36.6468H209.946V36.281H210.312V34.8175H209.946V35.1834H207.751V34.8175H207.019V34.4517H206.654V33.72H206.288V30.4273H206.654V29.6956H207.019V29.3297H207.751V28.9639H212.141V36.6468H211.776V37.3785H211.41V37.7444H210.678V38.1102H207.751V37.7444H207.019V37.3785H206.654V36.6468H206.288V35.9151H208.117ZM215.807 30.4273V30.7931H215.441V35.9151H213.612V28.9639H215.441V29.3297H215.807V28.9639H218.002V29.3297H218.368V29.6956H218.734V30.0614H218.368V30.4273H218.002V30.7931H217.636V31.159H217.27V30.7931H216.904V30.4273H215.807ZM223.495 35.5492V35.9151H220.569V35.5492H219.837V35.1834H219.471V34.4517H219.105V30.4273H219.471V29.6956H219.837V29.3297H220.569V28.9639H223.495V29.3297H224.227V29.6956H224.593V30.4273H224.959V34.4517H224.593V35.1834H224.227V35.5492H223.495ZM221.3 34.0858V34.4517H222.764V34.0858H223.13V30.7931H222.764V30.4273H221.3V30.7931H220.934V34.0858H221.3ZM228.258 33.3541V33.72H228.624V34.0858H228.99V33.72H229.355V33.3541H229.721V28.9639H231.551V33.3541H231.916V33.72H232.282V34.0858H232.648V33.72H233.014V33.3541H233.38V28.9639H235.209V33.72H234.843V34.0858H234.477V34.4517H234.112V34.8175H233.746V35.1834H233.38V35.5492H233.014V35.9151H231.916V35.5492H231.551V35.1834H231.185V34.8175H230.819V34.4517H230.453V34.8175H230.087V35.1834H229.721V35.5492H229.355V35.9151H228.258V35.5492H227.892V35.1834H227.526V34.8175H227.16V34.4517H226.794V34.0858H226.429V33.72H226.063V28.9639H227.892V33.3541H228.258ZM242.525 33.3541V33.72H242.891V34.0858H243.257V33.72H243.623V33.3541H243.989V28.9639H245.818V33.3541H246.184V33.72H246.55V34.0858H246.916V33.72H247.282V33.3541H247.647V28.9639H249.477V33.72H249.111V34.0858H248.745V34.4517H248.379V34.8175H248.013V35.1834H247.647V35.5492H247.282V35.9151H246.184V35.5492H245.818V35.1834H245.452V34.8175H245.086V34.4517H244.721V34.8175H244.355V35.1834H243.989V35.5492H243.623V35.9151H242.525V35.5492H242.16V35.1834H241.794V34.8175H241.428V34.4517H241.062V34.0858H240.696V33.72H240.33V28.9639H242.16V33.3541H242.525ZM252.765 26.7688V28.2322H250.936V26.7688H252.765ZM252.765 29.3297V35.9151H250.936V29.3297H252.765ZM256.427 34.0858V34.4517H257.524V35.9151H255.695V35.5492H254.963V35.1834H254.598V34.4517H254.232V30.7931H253.5V29.3297H254.232V28.598H254.598V28.2322H254.963V27.8663H255.329V27.5005H255.695V27.1346H256.061V29.3297H257.524V30.7931H256.061V34.0858H256.427ZM260.821 30.4273V30.7931H260.456V35.9151H258.626V26.7688H260.456V29.3297H260.821V28.9639H263.016V29.3297H263.748V29.6956H264.114V30.4273H264.48V35.9151H262.651V30.7931H262.285V30.4273H260.821ZM271.076 26.7688V28.2322H269.246V26.7688H271.076ZM271.076 29.3297V35.9151H269.246V29.3297H271.076ZM274.737 34.0858V34.4517H275.835V35.9151H274.006V35.5492H273.274V35.1834H272.908V34.4517H272.542V30.7931H271.811V29.3297H272.542V28.598H272.908V28.2322H273.274V27.8663H273.64V27.5005H274.006V27.1346H274.372V29.3297H275.835V30.7931H274.372V34.0858H274.737ZM284.623 35.5492V35.9151H281.696V35.5492H280.965V35.1834H280.599V34.4517H280.233V30.4273H280.599V29.6956H280.965V29.3297H281.696V28.9639H284.623V29.3297H285.355V29.6956H285.721V30.4273H286.087V34.4517H285.721V35.1834H285.355V35.5492H284.623ZM282.428 34.0858V34.4517H283.892V34.0858H284.257V30.7931H283.892V30.4273H282.428V30.7931H282.062V34.0858H282.428ZM289.386 30.4273V30.7931H289.02V35.9151H287.191V28.9639H289.02V29.3297H289.386V28.9639H291.581V29.3297H291.947V29.6956H292.313V30.0614H291.947V30.4273H291.581V30.7931H291.215V31.159H290.849V30.7931H290.483V30.4273H289.386ZM8.92683 45.4273V45.7931H8.56098V50.9151H6.73171V43.9639H8.56098V44.3297H8.92683V43.9639H11.122V44.3297H11.4878V44.6956H11.8537V45.0614H11.4878V45.4273H11.122V45.7931H10.7561V46.159H10.3902V45.7931H10.0244V45.4273H8.92683ZM14.4204 49.0858V49.4517H15.8838V49.0858H16.2496V48.72H18.0789V49.4517H17.713V50.1834H17.3472V50.5492H16.6155V50.9151H13.6886V50.5492H12.9569V50.1834H12.5911V49.4517H12.2252V45.4273H12.5911V44.6956H12.9569V44.3297H13.6886V43.9639H16.6155V44.3297H17.3472V44.6956H17.713V45.4273H18.0789V47.9883H14.0545V49.0858H14.4204ZM14.0545 45.7931V46.8907H16.2496V45.7931H15.8838V45.4273H14.4204V45.7931H14.0545ZM21.378 45.4273V45.7931H21.0121V50.9151H19.1829V43.9639H21.0121V44.3297H21.378V43.9639H23.2073V44.3297H23.5731V44.6956H23.939V44.3297H24.3048V43.9639H26.1341V44.3297H26.8658V44.6956H27.2317V45.4273H27.5975V50.9151H25.7682V45.7931H25.4024V45.4273H24.6707V45.7931H24.3048V50.9151H22.4756V45.7931H22.1097V45.4273H21.378ZM30.519 47.9883V48.3541H30.1531V49.0858H30.519V49.4517H31.9824V49.0858H32.3483V47.9883H30.519ZM28.6897 50.1834V49.4517H28.3239V48.3541H28.6897V47.6224H29.0556V47.2566H29.7873V46.8907H32.3483V45.7931H31.9824V45.4273H30.519V45.7931H30.1531V46.159H28.3239V45.4273H28.6897V44.6956H29.0556V44.3297H29.7873V43.9639H32.7141V44.3297H33.4458V44.6956H33.8117V45.4273H34.1775V50.9151H32.3483V50.5492H31.9824V50.9151H29.4214V50.5492H29.0556V50.1834H28.6897ZM37.477 41.7688V43.2322H35.6477V41.7688H37.477ZM37.477 44.3297V50.9151H35.6477V44.3297H37.477ZM41.1387 45.4273V45.7931H40.7729V50.9151H38.9436V43.9639H40.7729V44.3297H41.1387V43.9639H43.3339V44.3297H44.0656V44.6956H44.4314V45.4273H44.7973V50.9151H42.968V45.7931H42.6022V45.4273H41.1387ZM51.0272 48.72V49.0858H51.393V49.4517H52.8564V49.0858H53.2223V48.3541H52.8564V47.9883H50.6613V47.6224H49.9296V47.2566H49.5637V46.5249H49.1979V45.4273H49.5637V44.6956H49.9296V44.3297H50.6613V43.9639H53.5881V44.3297H54.3198V44.6956H54.6857V45.7931H52.8564V45.4273H51.393V45.7931H51.0272V46.159H51.393V46.5249H53.5881V46.8907H54.3198V47.2566H54.6857V47.9883H55.0515V49.4517H54.6857V50.1834H54.3198V50.5492H53.5881V50.9151H50.6613V50.5492H49.9296V50.1834H49.5637V49.4517H49.1979V48.72H51.0272ZM58.3507 49.0858V49.4517H59.4482V50.9151H57.6189V50.5492H56.8872V50.1834H56.5214V49.4517H56.1555V45.7931H55.4238V44.3297H56.1555V43.598H56.5214V43.2322H56.8872V42.8663H57.2531V42.5005H57.6189V42.1346H57.9848V44.3297H59.4482V45.7931H57.9848V49.0858H58.3507ZM62.3793 47.9883V48.3541H62.0135V49.0858H62.3793V49.4517H63.8427V49.0858H64.2086V47.9883H62.3793ZM60.5501 50.1834V49.4517H60.1842V48.3541H60.5501V47.6224H60.9159V47.2566H61.6476V46.8907H64.2086V45.7931H63.8427V45.4273H62.3793V45.7931H62.0135V46.159H60.1842V45.4273H60.5501V44.6956H60.9159V44.3297H61.6476V43.9639H64.5745V44.3297H65.3062V44.6956H65.672V45.4273H66.0379V50.9151H64.2086V50.5492H63.8427V50.9151H61.2818V50.5492H60.9159V50.1834H60.5501ZM69.3373 48.3541V48.72H70.8008V48.3541H71.1666V45.4273H69.3373V45.7931H68.9715V48.3541H69.3373ZM68.9715 50.9151V51.281H69.3373V51.6468H70.8008V51.281H71.1666V49.8175H70.8008V50.1834H68.6056V49.8175H67.8739V49.4517H67.5081V48.72H67.1422V45.4273H67.5081V44.6956H67.8739V44.3297H68.6056V43.9639H72.9959V51.6468H72.63V52.3785H72.2642V52.7444H71.5325V53.1102H68.6056V52.7444H67.8739V52.3785H67.5081V51.6468H67.1422V50.9151H68.9715ZM76.6612 45.4273V45.7931H76.2954V50.9151H74.4661V43.9639H76.2954V44.3297H76.6612V43.9639H78.8563V44.3297H79.588V44.6956H79.9539V45.4273H80.3197V50.9151H78.4905V45.7931H78.1246V45.4273H76.6612ZM83.2534 47.9883V48.3541H82.8875V49.0858H83.2534V49.4517H84.7168V49.0858H85.0826V47.9883H83.2534ZM81.4241 50.1834V49.4517H81.0582V48.3541H81.4241V47.6224H81.7899V47.2566H82.5217V46.8907H85.0826V45.7931H84.7168V45.4273H83.2534V45.7931H82.8875V46.159H81.0582V45.4273H81.4241V44.6956H81.7899V44.3297H82.5217V43.9639H85.4485V44.3297H86.1802V44.6956H86.546V45.4273H86.9119V50.9151H85.0826V50.5492H84.7168V50.9151H82.1558V50.5492H81.7899V50.1834H81.4241ZM90.5772 45.4273V45.7931H90.2114V50.9151H88.3821V43.9639H90.2114V44.3297H90.5772V43.9639H92.7723V44.3297H93.504V44.6956H93.8699V45.4273H94.2358V50.9151H92.4065V45.7931H92.0406V45.4273H90.5772ZM97.5352 49.0858V49.4517H98.6328V50.9151H96.8035V50.5492H96.0718V50.1834H95.706V49.4517H95.3401V45.7931H94.6084V44.3297H95.3401V43.598H95.706V43.2322H96.0718V42.8663H96.4377V42.5005H96.8035V42.1346H97.1694V44.3297H98.6328V45.7931H97.1694V49.0858H97.5352ZM105.226 47.9883V48.3541H104.86V49.0858H105.226V49.4517H106.689V49.0858H107.055V47.9883H105.226ZM103.397 50.1834V49.4517H103.031V48.3541H103.397V47.6224H103.763V47.2566H104.494V46.8907H107.055V45.7931H106.689V45.4273H105.226V45.7931H104.86V46.159H103.031V45.4273H103.397V44.6956H103.763V44.3297H104.494V43.9639H107.421V44.3297H108.153V44.6956H108.519V45.4273H108.885V50.9151H107.055V50.5492H106.689V50.9151H104.128V50.5492H103.763V50.1834H103.397ZM112.55 45.4273V45.7931H112.184V50.9151H110.355V43.9639H112.184V44.3297H112.55V43.9639H114.745V44.3297H115.477V44.6956H115.843V45.4273H116.208V50.9151H114.379V45.7931H114.013V45.4273H112.55ZM119.142 49.0858V49.4517H120.605V49.0858H120.971V45.4273H119.142V45.7931H118.776V49.0858H119.142ZM117.313 45.4273V44.6956H117.679V44.3297H118.41V43.9639H120.971V41.7688H122.801V50.9151H120.971V50.5492H120.605V50.9151H118.41V50.5492H117.679V50.1834H117.313V49.4517H116.947V45.4273H117.313ZM133.421 45.4273H133.787V49.4517H133.421V50.1834H133.055V50.5492H132.323V50.9151H127.933V41.7688H129.762V44.3297H130.128V43.9639H132.323V44.3297H133.055V44.6956H133.421V45.4273ZM131.591 49.0858H131.957V45.7931H131.591V45.4273H130.128V45.7931H129.762V49.4517H131.591V49.0858ZM136.72 49.0858V49.4517H138.184V49.0858H138.549V48.72H140.379V49.4517H140.013V50.1834H139.647V50.5492H138.915V50.9151H135.988V50.5492H135.257V50.1834H134.891V49.4517H134.525V45.4273H134.891V44.6956H135.257V44.3297H135.988V43.9639H138.915V44.3297H139.647V44.6956H140.013V45.4273H140.379V47.9883H136.354V49.0858H136.72ZM136.354 45.7931V46.8907H138.549V45.7931H138.184V45.4273H136.72V45.7931H136.354ZM146.974 41.7688V50.9151H145.145V41.7688H146.974ZM150.27 49.0858V49.4517H151.733V49.0858H152.099V48.72H153.928V49.4517H153.563V50.1834H153.197V50.5492H152.465V50.9151H149.538V50.5492H148.807V50.1834H148.441V49.4517H148.075V45.4273H148.441V44.6956H148.807V44.3297H149.538V43.9639H152.465V44.3297H153.197V44.6956H153.563V45.4273H153.928V47.9883H149.904V49.0858H150.27ZM149.904 45.7931V46.8907H152.099V45.7931H151.733V45.4273H150.27V45.7931H149.904ZM155.764 44.3297V43.2322H156.13V42.5005H156.496V42.1346H157.228V41.7688H159.057V43.2322H157.959V43.598H157.593V44.3297H159.057V45.7931H157.593V50.9151H155.764V45.7931H155.032V44.3297H155.764ZM162.355 49.0858V49.4517H163.452V50.9151H161.623V50.5492H160.891V50.1834H160.525V49.4517H160.159V45.7931H159.428V44.3297H160.159V43.598H160.525V43.2322H160.891V42.8663H161.257V42.5005H161.623V42.1346H161.989V44.3297H163.452V45.7931H161.989V49.0858H162.355ZM173.704 45.4273H174.07V49.4517H173.704V50.1834H173.338V50.5492H172.606V50.9151H168.216V41.7688H170.045V44.3297H170.411V43.9639H172.606V44.3297H173.338V44.6956H173.704V45.4273ZM171.875 49.0858H172.24V45.7931H171.875V45.4273H170.411V45.7931H170.045V49.4517H171.875V49.0858ZM177.003 49.0858V49.4517H178.467V49.0858H178.833V48.72H180.662V49.4517H180.296V50.1834H179.93V50.5492H179.198V50.9151H176.272V50.5492H175.54V50.1834H175.174V49.4517H174.808V45.4273H175.174V44.6956H175.54V44.3297H176.272V43.9639H179.198V44.3297H179.93V44.6956H180.296V45.4273H180.662V47.9883H176.638V49.0858H177.003ZM176.638 45.7931V46.8907H178.833V45.7931H178.467V45.4273H177.003V45.7931H176.638ZM183.961 45.4273V45.7931H183.595V50.9151H181.766V41.7688H183.595V44.3297H183.961V43.9639H186.156V44.3297H186.888V44.6956H187.254V45.4273H187.62V50.9151H185.79V45.7931H185.424V45.4273H183.961ZM190.553 41.7688V43.2322H188.724V41.7688H190.553ZM190.553 44.3297V50.9151H188.724V44.3297H190.553ZM194.215 45.4273V45.7931H193.849V50.9151H192.02V43.9639H193.849V44.3297H194.215V43.9639H196.41V44.3297H197.142V44.6956H197.508V45.4273H197.873V50.9151H196.044V45.7931H195.678V45.4273H194.215ZM200.807 49.0858V49.4517H202.27V49.0858H202.636V45.4273H200.807V45.7931H200.441V49.0858H200.807ZM198.978 45.4273V44.6956H199.344V44.3297H200.075V43.9639H202.636V41.7688H204.466V50.9151H202.636V50.5492H202.27V50.9151H200.075V50.5492H199.344V50.1834H198.978V49.4517H198.612V45.4273H198.978ZM207.765 49.0858V50.9151H205.936V49.0858H207.765ZM210.329 44.3297V45.0614H209.963V44.3297H209.598V43.598H209.232V41.7688H211.061V43.598H210.695V44.3297H210.329ZM212.89 44.3297V45.0614H212.524V44.3297H212.159V43.598H211.793V41.7688H213.622V43.598H213.256V44.3297H212.89Z" fill="white"/>
<line x1="1" y1="4.45282" x2="14" y2="4.45282" stroke="white"/>
<line x1="0.5" y1="58.4434" x2="0.5" y2="3.96229" stroke="white"/>
<line x1="37" y1="4.45282" x2="296" y2="4.45282" stroke="white"/>
<line x1="1" y1="57.9434" x2="200" y2="57.9434" stroke="white"/>
<path d="M296.982 76.4968L296.018 3.95885" stroke="white"/>
<line x1="290" y1="58.5" x2="297" y2="58.5" stroke="white"/>
<path d="M216.341 69.2439V69.5366H217.22V69.2439H217.512V63.6829H218.976V69.8293H218.683V70.4146H218.39V70.7073H217.805V71H215.756V70.7073H215.171V70.4146H214.878V69.8293H214.585V68.3659H216.049V69.2439H216.341ZM223.371 70.7073V71H221.03V70.7073H220.444V70.4146H220.152V69.8293H219.859V66.6098H220.152V66.0244H220.444V65.7317H221.03V65.439H223.371V65.7317H223.957V66.0244H224.249V66.6098H224.542V69.8293H224.249V70.4146H223.957V70.7073H223.371ZM221.615 69.5366V69.8293H222.786V69.5366H223.079V66.9024H222.786V66.6098H221.615V66.9024H221.323V69.5366H221.615ZM227.181 66.6098V66.9024H226.889V71H225.425V63.6829H226.889V65.7317H227.181V65.439H228.937V65.7317H229.523V66.0244H229.815V66.6098H230.108V71H228.645V66.9024H228.352V66.6098H227.181ZM232.748 66.6098V66.9024H232.455V71H230.992V65.439H232.455V65.7317H232.748V65.439H234.504V65.7317H235.089V66.0244H235.382V66.6098H235.675V71H234.211V66.9024H233.918V66.6098H232.748ZM241.244 69.2439V69.5366H242.707V69.2439H243V68.6585H244.463V69.8293H244.171V70.4146H243.878V70.7073H243.293V71H240.658V70.7073H240.073V70.4146H239.78V69.8293H239.488V64.8537H239.78V64.2683H240.073V63.9756H240.658V63.6829H243.293V63.9756H243.878V64.2683H244.171V64.8537H244.463V66.0244H243V65.439H242.707V65.1463H241.244V65.439H240.951V69.2439H241.244ZM247.092 69.5366V71H245.628V69.5366H247.092ZM255 67.4878V67.7805H254.414V67.4878H254.122V67.1951H253.829V66.9024H253.536V66.6098H253.244V66.3171H252.951V66.0244H252.658V71H251.195V63.6829H252.658V63.9756H252.951V64.2683H253.244V64.561H253.536V64.8537H253.829V65.1463H254.122V65.439H254.414V65.7317H255V65.439H255.292V65.1463H255.585V64.8537H255.878V64.561H256.17V64.2683H256.463V63.9756H256.756V63.6829H258.219V71H256.756V66.0244H256.463V66.3171H256.17V66.6098H255.878V66.9024H255.585V67.1951H255.292V67.4878H255ZM260.85 68.6585V68.9512H260.557V69.5366H260.85V69.8293H262.02V69.5366H262.313V68.6585H260.85ZM259.386 70.4146V69.8293H259.093V68.9512H259.386V68.3659H259.679V68.0732H260.264V67.7805H262.313V66.9024H262.02V66.6098H260.85V66.9024H260.557V67.1951H259.093V66.6098H259.386V66.0244H259.679V65.7317H260.264V65.439H262.606V65.7317H263.191V66.0244H263.484V66.6098H263.776V71H262.313V70.7073H262.02V71H259.972V70.7073H259.679V70.4146H259.386ZM265.245 69.2439V68.9512H265.538V68.6585H265.831V68.3659H266.123V68.0732H265.831V67.7805H265.538V67.4878H265.245V67.1951H264.953V65.439H266.416V66.9024H266.709V67.1951H267.001V67.4878H267.587V67.1951H267.879V66.9024H268.172V65.439H269.635V67.1951H269.343V67.4878H269.05V67.7805H268.757V68.0732H268.465V68.3659H268.757V68.6585H269.05V68.9512H269.343V69.2439H269.635V71H268.172V69.5366H267.879V69.2439H267.587V68.9512H267.001V69.2439H266.709V69.5366H266.416V71H264.953V69.2439H265.245ZM272.568 68.9512V69.2439H272.861V69.5366H273.153V69.2439H273.446V68.9512H273.739V65.439H275.202V68.9512H275.495V69.2439H275.788V69.5366H276.08V69.2439H276.373V68.9512H276.666V65.439H278.129V69.2439H277.836V69.5366H277.544V69.8293H277.251V70.122H276.958V70.4146H276.666V70.7073H276.373V71H275.495V70.7073H275.202V70.4146H274.909V70.122H274.617V69.8293H274.324V70.122H274.031V70.4146H273.739V70.7073H273.446V71H272.568V70.7073H272.275V70.4146H271.983V70.122H271.69V69.8293H271.397V69.5366H271.105V69.2439H270.812V65.439H272.275V68.9512H272.568ZM280.76 69.5366V69.8293H281.93V69.5366H282.223V69.2439H283.687V69.8293H283.394V70.4146H283.101V70.7073H282.516V71H280.174V70.7073H279.589V70.4146H279.296V69.8293H279.004V66.6098H279.296V66.0244H279.589V65.7317H280.174V65.439H282.516V65.7317H283.101V66.0244H283.394V66.6098H283.687V68.6585H280.467V69.5366H280.76ZM280.467 66.9024V67.7805H282.223V66.9024H281.93V66.6098H280.76V66.9024H280.467ZM286.033 63.6829V71H284.57V63.6829H286.033ZM288.67 63.6829V71H287.206V63.6829H288.67Z" fill="white"/>
<line x1="200.5" y1="57.4528" x2="200.5" y2="76.2736" stroke="white"/>
<path d="M297.5 76.5L200 76.5M265 58.5L201 58.5" stroke="white"/>
<line x1="205" y1="67.5" x2="211" y2="67.5" stroke="white"/>
</svg>
