<svg width="16" height="24" viewBox="0 0 16 24" fill="none" xmlns="http://www.w3.org/2000/svg">
<ellipse cx="14.1667" cy="22.7463" rx="1.16667" ry="1.25373" fill="#D9D9D9"/>
<ellipse cx="14.1667" cy="17.3731" rx="1.16667" ry="1.25373" fill="#D9D9D9"/>
<ellipse cx="14.1667" cy="11.9999" rx="1.16667" ry="1.25373" fill="#D9D9D9"/>
<ellipse cx="14.1667" cy="6.6269" rx="1.16667" ry="1.25373" fill="#D9D9D9"/>
<ellipse cx="14.1667" cy="22.7463" rx="1.16667" ry="1.25373" fill="#D9D9D9"/>
<ellipse cx="14.1667" cy="17.3731" rx="1.16667" ry="1.25373" fill="#D9D9D9"/>
<ellipse cx="14.1667" cy="11.9999" rx="1.16667" ry="1.25373" fill="#D9D9D9"/>
<ellipse cx="14.1667" cy="6.6269" rx="1.16667" ry="1.25373" fill="#D9D9D9"/>
<ellipse cx="7.83335" cy="22.7463" rx="1.16667" ry="1.25373" fill="#D9D9D9"/>
<ellipse cx="7.83335" cy="17.3731" rx="1.16667" ry="1.25373" fill="#D9D9D9"/>
<ellipse cx="7.83335" cy="11.9999" rx="1.16667" ry="1.25373" fill="#D9D9D9"/>
<ellipse cx="7.83335" cy="6.6269" rx="1.16667" ry="1.25373" fill="#D9D9D9"/>
<ellipse cx="7.83335" cy="22.7463" rx="1.16667" ry="1.25373" fill="#D9D9D9"/>
<ellipse cx="7.83335" cy="17.3731" rx="1.16667" ry="1.25373" fill="#D9D9D9"/>
<ellipse cx="7.83335" cy="11.9999" rx="1.16667" ry="1.25373" fill="#D9D9D9"/>
<ellipse cx="7.83335" cy="6.6269" rx="1.16667" ry="1.25373" fill="#D9D9D9"/>
<ellipse cx="1.83332" cy="22.7463" rx="1.16667" ry="1.25373" fill="#D9D9D9"/>
<ellipse cx="1.83332" cy="17.3731" rx="1.16667" ry="1.25373" fill="#D9D9D9"/>
<ellipse cx="1.83332" cy="11.9999" rx="1.16667" ry="1.25373" fill="#D9D9D9"/>
<ellipse cx="1.83332" cy="6.6269" rx="1.16667" ry="1.25373" fill="#D9D9D9"/>
<ellipse cx="1.83332" cy="22.7463" rx="1.16667" ry="1.25373" fill="#D9D9D9"/>
<ellipse cx="1.83332" cy="17.3731" rx="1.16667" ry="1.25373" fill="#D9D9D9"/>
<ellipse cx="1.83332" cy="11.9999" rx="1.16667" ry="1.25373" fill="#D9D9D9"/>
<ellipse cx="1.83332" cy="6.6269" rx="1.16667" ry="1.25373" fill="#D9D9D9"/>
<ellipse cx="14.1667" cy="1.25373" rx="1.16667" ry="1.25373" fill="#D9D9D9"/>
<ellipse cx="7.83335" cy="1.25373" rx="1.16667" ry="1.25373" fill="#D9D9D9"/>
<ellipse cx="1.83332" cy="1.25373" rx="1.16667" ry="1.25373" fill="#D9D9D9"/>
</svg>
